<svg fill="none" height="64" viewBox="0 0 64 64" width="64" xmlns="http://www.w3.org/2000/svg"><g clip-rule="evenodd" fill-rule="evenodd"><path d="m26.8269 1.44335c3.2011-1.924468 7.1451-1.924467 10.3462 0l17.6538 10.61335c3.2011 1.9245 5.1731 5.481 5.1731 9.33v21.2266c0 3.849-1.972 7.4055-5.1731 9.33l-17.6538 10.6134c-3.2011 1.9244-7.1451 1.9244-10.3462 0l-17.65384-10.6134c-3.2011-1.9245-5.17306-5.481-5.17306-9.33v-21.2266c0-3.849 1.97196-7.4055 5.17306-9.33zm7.7473 11.10265c-1.5929-.9599-3.5555-.9599-5.1485 0l-12.1848 7.3423c-1.5929.9598-2.5742 2.7338-2.5742 4.6535v14.6845c0 1.9198.9813 3.6937 2.5742 4.6536l12.1848 7.3422c1.593.9599 3.5556.9599 5.1485 0l12.1849-7.3422c1.5929-.9599 2.5742-2.7338 2.5742-4.6536v-14.6845c0-1.9197-.9813-3.6937-2.5742-4.6535z" fill="#10222f"/><path d="m26.8269 1.44335c3.2011-1.924468 7.1451-1.924467 10.3462 0l17.6538 10.61335c3.2011 1.9245 5.1731 5.481 5.1731 9.33v21.2266c0 3.849-1.972 7.4055-5.1731 9.33l-17.6538 10.6134c-3.2011 1.9244-7.1451 1.9244-10.3462 0l-17.65384-10.6134c-3.2011-1.9245-5.17306-5.481-5.17306-9.33v-21.2266c0-3.849 1.97196-7.4055 5.17306-9.33zm7.7473 11.10265c-1.5929-.9599-3.5555-.9599-5.1485 0l-12.1848 7.3423c-1.5929.9598-2.5742 2.7338-2.5742 4.6535v14.6845c0 1.9198.9813 3.6937 2.5742 4.6536l12.1848 7.3422c1.593.9599 3.5556.9599 5.1485 0l12.1849-7.3422c1.5929-.9599 2.5742-2.7338 2.5742-4.6536v-14.6845c0-1.9197-.9813-3.6937-2.5742-4.6535z" fill="#0974d7"/></g></svg>